<?xml version="1.0" encoding="UTF-8" standalone="no" ?>
<!DOCTYPE svg PUBLIC "-//W3C//DTD SVG 1.1//EN" "http://www.w3.org/Graphics/SVG/1.1/DTD/svg11.dtd">
<svg xmlns="http://www.w3.org/2000/svg" xmlns:xlink="http://www.w3.org/1999/xlink" version="1.1" width="640" height="480" viewBox="0 0 640 480" xml:space="preserve">
<desc>Created with Fabric.js 3.6.3</desc>
<defs>
</defs>
<g transform="matrix(26.88 0 0 26.88 323.57 237.57)"  >
<path style="stroke: none; stroke-width: 1; stroke-dasharray: none; stroke-linecap: butt; stroke-dashoffset: 0; stroke-linejoin: miter; stroke-miterlimit: 4; fill: rgb(255,255,255); fill-rule: nonzero; opacity: 1;"  transform=" translate(-12, -12)" d="M 22.459 5.5 a 8.763 8.763 0 0 1 -2.471 0.678 A 4.337 4.337 0 0 0 21.88 3.794 A 8.907 8.907 0 0 1 19.144 4.83 A 4.3 4.3 0 0 0 11.7 7.768 a 4.446 4.446 0 0 0 0.111 0.983 A 12.194 12.194 0 0 1 2.935 4.266 a 4.226 4.226 0 0 0 -0.582 2.166 a 4.307 4.307 0 0 0 1.914 3.584 a 4.292 4.292 0 0 1 -1.949 -0.539 V 9.53 A 4.306 4.306 0 0 0 5.77 13.753 a 4.342 4.342 0 0 1 -1.935 0.075 a 4.318 4.318 0 0 0 4.028 2.989 a 8.629 8.629 0 0 1 -5.339 1.842 A 9.277 9.277 0 0 1 1.5 18.6 a 12.254 12.254 0 0 0 6.613 1.932 A 12.159 12.159 0 0 0 20.361 8.3 c 0 -0.183 0 -0.367 -0.013 -0.551 A 8.69 8.69 0 0 0 22.5 5.516 Z" stroke-linecap="round" />
</g>
</svg>